<svg width="34" height="34" viewBox="0 0 34 34" fill="none" xmlns="http://www.w3.org/2000/svg">
<g clip-path="url(#clip0_35_90)">
<path d="M17 34C26.3888 34 34 26.3888 34 17C34 7.61116 26.3888 0 17 0C7.61116 0 0 7.61116 0 17C0 26.3888 7.61116 34 17 34Z" fill="black"/>
<path d="M9.31775 25.0002H12.8131V13.6846H9.31775V25.0002Z" fill="#63ADF2"/>
<path d="M9 10.0719C9 11.1875 9.90031 12.0906 11.0654 12.0906C12.1776 12.0906 13.0779 11.1875 13.0779 10.0719C13.0779 8.95625 12.1776 8 11.0654 8C9.90031 8 9 8.95625 9 10.0719Z" fill="#63ADF2"/>
<path d="M22.4517 25.0001H26V18.7845C26 15.7563 25.3115 13.3657 21.7632 13.3657C20.0685 13.3657 18.9034 14.322 18.4268 15.2251H18.3738V13.6845H15.0374V25.0001H18.5327V19.422C18.5327 17.9345 18.7975 16.5001 20.6511 16.5001C22.4517 16.5001 22.4517 18.2001 22.4517 19.4751V25.0001Z" fill="#63ADF2"/>
</g>
<defs>
<clipPath id="clip0_35_90">
<rect width="34" height="34" fill="white"/>
</clipPath>
</defs>
</svg>
