<svg width="220" height="36" viewBox="0 0 220 36" fill="none" xmlns="http://www.w3.org/2000/svg">
<g clip-path="url(#clip0_35_103)">
<path d="M48.7664 26.7885C45.725 20.5161 40.7193 10.1928 37.2116 2.95894C36.5447 1.58359 34.6741 1.3711 33.7162 2.5622C31.1898 5.70359 27.8651 9.83741 26.0413 12.1052C24.2291 9.8649 20.9586 5.82165 18.459 2.73136C17.4994 1.54493 15.6339 1.75766 14.9682 3.13072C11.0037 11.3066 5.4287 22.8042 1.45303 31.0034C0.781374 32.3886 1.79411 33.9954 3.33353 33.9915C7.28353 33.9815 12.1262 33.9693 15.5977 33.9607C16.1862 33.9592 16.7455 33.7092 17.1392 33.2718C22.8642 26.9118 29.6499 19.3739 35.2794 13.1202C36.495 15.6274 40.632 24.1587 41.9155 26.8057L37.9405 26.8157L33.3334 21.12L30.0362 24.7828C29.3224 25.5757 29.3207 26.7786 30.0345 27.5716C31.5317 29.2348 33.976 31.9501 35.1205 33.2214C35.5166 33.6615 36.0777 33.9089 36.6699 33.9074C40.145 33.8986 44.9488 33.8865 48.8844 33.8766C50.4192 33.8728 51.4227 32.2664 50.753 30.8854L48.7664 26.7885ZM20.7708 18.6583L14.1621 26.8757L10.2754 26.8855L16.9765 13.0659C18.066 14.2763 20.2733 16.7285 21.3559 17.931L20.7708 18.6583ZM48.7664 26.7885C45.725 20.5161 40.7193 10.1928 37.2116 2.95894C36.5447 1.58359 34.6741 1.3711 33.7162 2.5622C31.1898 5.70359 27.8651 9.83741 26.0413 12.1052C24.2291 9.8649 20.9586 5.82165 18.459 2.73136C17.4994 1.54493 15.6339 1.75766 14.9682 3.13072C11.0037 11.3066 5.4287 22.8042 1.45303 31.0034C0.781374 32.3886 1.79411 33.9954 3.33353 33.9915C7.28353 33.9815 12.1262 33.9693 15.5977 33.9607C16.1862 33.9592 16.7455 33.7092 17.1392 33.2718C22.8642 26.9118 29.6499 19.3739 35.2794 13.1202C36.495 15.6274 40.632 24.1587 41.9155 26.8057L37.9405 26.8157L33.3334 21.12L30.0362 24.7828C29.3224 25.5757 29.3207 26.7786 30.0345 27.5716C31.5317 29.2348 33.976 31.9501 35.1205 33.2214C35.5166 33.6615 36.0777 33.9089 36.6699 33.9074C40.145 33.8986 44.9488 33.8865 48.8844 33.8766C50.4192 33.8728 51.4227 32.2664 50.753 30.8854L48.7664 26.7885ZM20.7708 18.6583L14.1621 26.8757L10.2754 26.8855L16.9765 13.0659C18.066 14.2763 20.2733 16.7285 21.3559 17.931L20.7708 18.6583Z" fill="black"/>
<path d="M59.4811 11.0241H63.9017L68.5729 22.4287H68.7666L73.4492 11.0241H77.904V28H74.3835V16.9486H74.2581L69.849 27.9202H67.4678L63.1042 16.9258H62.9561V28H59.4811V11.0241ZM91.3366 11.0241H94.9141V22.0299C94.9141 23.268 94.6216 24.3542 94.0368 25.2884C93.4519 26.2151 92.6316 26.9366 91.5759 27.4531C90.5201 27.9696 89.2896 28.2279 87.8844 28.2279C86.4717 28.2279 85.2374 27.9696 84.1816 27.4531C83.1335 26.9366 82.317 26.2151 81.7321 25.2884C81.1472 24.3542 80.8548 23.268 80.8548 22.0299V11.0241H84.4323V21.7337C84.4323 22.7059 84.7475 23.5073 85.3779 24.1377C86.0084 24.7605 86.8439 25.0719 87.8844 25.0719C88.925 25.0719 89.7605 24.7605 90.391 24.1377C91.0214 23.5073 91.3366 22.7059 91.3366 21.7337V11.0241ZM104.165 28.2393C102.107 28.2393 100.463 27.7683 99.2321 26.8265C98.0092 25.8847 97.3712 24.4985 97.318 22.668H100.793C100.854 23.5187 101.188 24.1605 101.796 24.5934C102.411 25.0188 103.186 25.2314 104.12 25.2314C105.031 25.2314 105.76 25.0378 106.307 24.6504C106.862 24.263 107.139 23.7579 107.139 23.1351C107.139 22.5654 106.888 22.1287 106.387 21.8249C105.886 21.5135 105.172 21.2476 104.245 21.0273L102.388 20.5716C100.96 20.2298 99.8321 19.6867 99.0042 18.9424C98.1839 18.1904 97.7738 17.1878 97.7738 15.9346C97.7738 14.9092 98.051 14.0129 98.6055 13.2458C99.1599 12.471 99.9195 11.871 100.884 11.4456C101.856 11.0127 102.961 10.7962 104.2 10.7962C105.46 10.7962 106.562 11.0127 107.504 11.4456C108.445 11.8786 109.178 12.4786 109.702 13.2458C110.234 14.0129 110.508 14.8978 110.523 15.9004H107.059C106.998 15.2396 106.717 14.7231 106.216 14.3509C105.715 13.9787 105.035 13.7926 104.177 13.7926C103.303 13.7926 102.631 13.9749 102.16 14.3395C101.689 14.6965 101.454 15.1522 101.454 15.7067C101.454 16.3067 101.716 16.7625 102.24 17.0739C102.764 17.3777 103.394 17.617 104.131 17.7917L105.646 18.1676C106.634 18.3879 107.511 18.7107 108.278 19.1361C109.045 19.5538 109.649 20.0931 110.09 20.7539C110.53 21.4071 110.751 22.2046 110.751 23.1465C110.751 24.7036 110.17 25.9416 109.007 26.8607C107.845 27.7797 106.231 28.2393 104.165 28.2393ZM112.517 13.9863V11.0241H126.451V13.9863H121.278V28H117.701V13.9863H112.517ZM128.775 11.0241H133.195L137.867 22.4287H138.06L142.743 11.0241H147.198V28H143.677V16.9486H143.552L139.143 27.9202H136.761L132.398 16.9258H132.25V28H128.775V11.0241ZM150.148 28V11.0241H161.587V13.9863H153.726V17.974H160.983V20.8792H153.726V25.0378H161.61V28H150.148ZM170.451 28H164.436V11.0241H170.497C172.206 11.0241 173.675 11.3659 174.906 12.0495C176.136 12.7255 177.082 13.6977 177.743 14.9661C178.411 16.227 178.745 17.7385 178.745 19.5007C178.745 21.2704 178.411 22.7895 177.743 24.0579C177.082 25.3264 176.133 26.3024 174.895 26.986C173.656 27.662 172.175 28 170.451 28ZM168.013 24.9238H170.292C171.894 24.9238 173.11 24.4947 173.938 23.6364C174.765 22.7781 175.179 21.3995 175.179 19.5007C175.179 17.617 174.765 16.246 173.938 15.3877C173.11 14.5294 171.894 14.1003 170.292 14.1003H168.013V24.9238ZM184.989 11.0241V28H181.411V11.0241H184.989ZM190.868 28H187.017L192.884 11.0241H197.499L203.355 28H199.515L198.251 24.1263H192.121L190.868 28ZM193.033 21.3236H197.339L195.254 14.8978H195.118L193.033 21.3236Z" fill="black"/>
</g>
<defs>
<clipPath id="clip0_35_103">
<rect width="220" height="36" fill="white"/>
</clipPath>
</defs>
</svg>
