<svg width="953" height="326" viewBox="0 0 953 326" fill="none" xmlns="http://www.w3.org/2000/svg">
<path d="M215.106 185.524C215.106 206.689 200.89 220.671 183.355 220.671C165.82 220.671 151.604 206.689 151.604 185.524C151.604 164.36 176.385 145.651 183.355 141.682C189.163 145.254 215.106 164.36 215.106 185.524Z" fill="#91C0C8"/>
<path d="M180.257 221.445C174.25 220.15 168.89 218.337 163.916 214.668C157.128 209.663 152.309 197.254 151.152 188.994C148.988 173.542 158.12 164.997 167.305 153.298C168.787 156.27 168.705 160.377 168.465 163.632C166.569 189.281 159.169 200.21 180.257 221.445Z" fill="#234B4B"/>
<path d="M119.49 105.285C120.24 105.527 120.977 105.805 121.7 106.118C140.721 114.421 161.285 131.228 168.255 156.009C163.608 161.042 162.467 164.546 159.349 170.335C154.253 179.798 156.11 185.363 159.349 195.891C161.972 204.417 162.275 213.066 170.191 217.187L171.059 220.329C161.78 220.164 153.156 218.969 144.749 214.811C128.546 206.796 116.722 191.363 111.134 174.387C103.406 150.913 108.685 126.797 119.49 105.285Z" fill="#234B4B"/>
<circle cx="183.355" cy="117.676" r="19.7473" fill="#9A7A3F" stroke="#EBE6E3" stroke-width="0.774404"/>
<path d="M184.167 140.362L183.385 139.882L182.589 140.336C178.964 142.4 170.897 148.172 163.717 156.116C156.565 164.03 150.056 174.362 150.056 185.524C150.056 207.446 164.869 222.22 183.355 222.22C201.841 222.22 216.654 207.446 216.654 185.524C216.654 174.344 209.834 163.907 202.55 155.959C195.227 147.969 187.173 142.212 184.167 140.362Z" stroke="#EBE6E3" stroke-width="3.09762"/>
<path d="M215.509 89.6987L215.532 89.7174L215.557 89.7337L245.22 109.337C260.915 119.709 267.349 139.559 260.724 157.166L248.052 190.842L248.042 190.869L248.034 190.897L238.803 225.306C233.882 243.649 216.826 256.069 197.858 255.123L162.965 253.381L162.935 253.38L162.905 253.381L128.012 255.123C109.044 256.069 91.9874 243.649 87.0664 225.306L77.8353 190.897L77.8277 190.869L77.8174 190.842L65.146 157.166C58.5204 139.559 64.9547 119.709 80.6501 109.337L110.313 89.7337L110.338 89.7174L110.361 89.6987L137.494 67.6246C152.312 55.5692 173.557 55.5692 188.376 67.6246L215.509 89.6987Z" stroke="#9B7D5A" stroke-width="1.19633"/>
<path d="M158.82 72.9941L158.85 72.9947L158.88 72.9922L194.314 70.0971C213.05 68.5663 230.367 80.1559 236.068 98.0413L247.01 132.367L247.019 132.394L247.031 132.421L261.098 165.118C268.604 182.567 262.888 202.875 247.378 213.857L219.006 233.947L218.982 233.965L218.959 233.984L192.74 256.801C178.406 269.275 157.288 270.058 142.057 258.681L113.515 237.361L113.492 237.343L113.467 237.328L82.6067 218.658C66.5268 208.93 59.3028 189.407 65.1887 171.586L76.3207 137.882L76.33 137.853L76.3364 137.824L83.9194 103.879C88.0888 85.2153 104.831 72.0565 123.985 72.3892L158.82 72.9941Z" stroke="#9B7D5A" stroke-width="1.19633"/>
<path d="M357.057 206.27C353.331 206.27 349.627 205.593 345.944 204.238C342.26 202.883 338.767 200.851 335.465 198.141C332.205 195.432 329.305 192.235 326.765 188.552C324.267 184.869 322.277 180.508 320.795 175.47C319.313 170.432 318.572 165.097 318.572 159.466C318.572 153.835 319.313 148.501 320.795 143.463C322.277 138.425 324.267 134.064 326.765 130.38C329.305 126.697 332.205 123.501 335.465 120.791C338.767 118.081 342.26 116.049 345.944 114.694C349.627 113.34 353.331 112.662 357.057 112.662C361.757 112.662 366.371 113.763 370.901 115.965C375.474 118.124 379.581 121.151 383.222 125.046C386.905 128.941 389.869 133.894 392.112 139.906C394.399 145.918 395.542 152.438 395.542 159.466C395.542 166.494 394.399 173.014 392.112 179.026C389.869 185.038 386.905 189.991 383.222 193.886C379.581 197.781 375.474 200.83 370.901 203.031C366.371 205.191 361.757 206.27 357.057 206.27ZM357.057 204.746C361.418 204.746 365.122 203.645 368.171 201.444C371.261 199.242 373.653 196.046 375.347 191.854C377.083 187.663 378.31 182.942 379.03 177.692C379.792 172.443 380.173 166.367 380.173 159.466C380.173 152.608 379.792 146.574 379.03 141.367C378.31 136.117 377.083 131.397 375.347 127.205C373.653 122.971 371.261 119.754 368.171 117.552C365.122 115.308 361.418 114.186 357.057 114.186C353.543 114.186 350.431 114.948 347.722 116.473C345.054 117.954 342.853 120.008 341.117 122.633C339.381 125.215 337.963 128.454 336.862 132.349C335.761 136.202 334.978 140.33 334.512 144.733C334.089 149.136 333.877 154.047 333.877 159.466C333.877 164.97 334.089 169.924 334.512 174.327C334.978 178.73 335.761 182.879 336.862 186.774C337.963 190.626 339.381 193.844 341.117 196.427C342.853 199.009 345.054 201.041 347.722 202.523C350.431 204.005 353.543 204.746 357.057 204.746ZM451.236 113.932H483.37V115.266C480.576 115.351 478.269 115.753 476.448 116.473C474.628 117.15 473.231 117.933 472.257 118.822C471.283 119.669 470.563 121.13 470.098 123.204C469.632 125.236 469.357 126.993 469.272 128.475C469.23 129.957 469.209 132.307 469.209 135.524V205.381H467.812L415.864 124.093L415.991 183.408C415.991 186.626 416.033 188.996 416.118 190.521C416.202 192.002 416.52 193.759 417.07 195.792C417.621 197.824 418.467 199.284 419.61 200.174C420.754 201.063 422.384 201.867 424.5 202.587C426.617 203.264 429.306 203.645 432.566 203.73V205H400.432V203.73C402.718 203.688 404.687 203.476 406.338 203.095C407.989 202.671 409.323 201.973 410.339 200.999C411.355 200.025 412.138 199.115 412.688 198.268C413.281 197.422 413.704 196.046 413.958 194.14C414.212 192.235 414.361 190.648 414.403 189.378C414.445 188.107 414.466 186.118 414.466 183.408V129.174C414.466 127.396 414.403 125.956 414.276 124.855C414.191 123.755 413.874 122.548 413.323 121.236C412.815 119.881 412.053 118.844 411.037 118.124C410.063 117.362 408.645 116.705 406.782 116.155C404.962 115.605 402.718 115.308 400.051 115.266V113.932H424.754L467.621 181.82V135.524C467.621 129.597 467.325 125.596 466.732 123.522C465.758 120.05 463.493 117.722 459.937 116.536C457.693 115.774 454.793 115.351 451.236 115.266V113.932ZM553.291 167.15H554.561L554.053 205H487.181V203.73C488.155 203.688 489.001 203.645 489.721 203.603C490.483 203.518 491.182 203.391 491.817 203.222C492.452 203.01 492.981 202.841 493.404 202.714C493.87 202.544 494.272 202.269 494.611 201.888C494.992 201.465 495.288 201.147 495.5 200.936C495.754 200.682 495.945 200.237 496.072 199.602C496.241 198.925 496.368 198.395 496.453 198.014C496.537 197.591 496.601 196.914 496.643 195.982C496.686 195.051 496.707 194.31 496.707 193.759C496.707 193.167 496.707 192.235 496.707 190.965V128.031C496.707 126.761 496.707 125.85 496.707 125.3C496.707 124.707 496.686 123.945 496.643 123.014C496.601 122.082 496.537 121.426 496.453 121.045C496.368 120.622 496.241 120.092 496.072 119.457C495.945 118.78 495.754 118.335 495.5 118.124C495.288 117.87 494.992 117.552 494.611 117.171C494.272 116.748 493.87 116.473 493.404 116.346C492.981 116.176 492.452 116.007 491.817 115.838C491.182 115.626 490.483 115.499 489.721 115.457C489.001 115.372 488.155 115.308 487.181 115.266V113.932H552.91L553.418 147.4H552.084C551.534 136.35 549.586 128.285 546.241 123.204C542.939 118.081 538.049 115.52 531.572 115.52H518.68C517.706 115.52 516.859 115.562 516.14 115.647C515.462 115.689 514.827 115.753 514.234 115.838C513.642 115.922 513.134 116.113 512.71 116.409C512.329 116.705 511.991 116.96 511.694 117.171C511.398 117.341 511.165 117.743 510.996 118.378C510.826 118.971 510.678 119.457 510.551 119.838C510.424 120.177 510.339 120.833 510.297 121.807C510.255 122.781 510.234 123.585 510.234 124.22C510.234 124.813 510.234 125.808 510.234 127.205V156.354H518.299C520.966 156.354 523.21 156.249 525.03 156.037C526.851 155.783 528.439 155.338 529.793 154.703C531.148 154.026 532.207 153.264 532.969 152.417C533.731 151.528 534.366 150.279 534.874 148.67C535.382 147.019 535.742 145.326 535.953 143.59C536.165 141.854 536.334 139.568 536.462 136.731H537.795V177.438H536.462C536.334 174.602 536.165 172.294 535.953 170.516C535.742 168.738 535.382 167.045 534.874 165.436C534.366 163.785 533.731 162.536 532.969 161.689C532.207 160.8 531.148 160.038 529.793 159.403C528.439 158.725 526.851 158.281 525.03 158.069C523.21 157.815 520.966 157.688 518.299 157.688H510.234V191.727C510.234 192.913 510.234 193.781 510.234 194.331C510.234 194.881 510.255 195.601 510.297 196.49C510.339 197.379 510.382 198.014 510.424 198.395C510.509 198.776 510.615 199.263 510.742 199.856C510.911 200.449 511.08 200.872 511.25 201.126C511.461 201.338 511.715 201.634 512.012 202.015C512.35 202.354 512.71 202.587 513.091 202.714C513.515 202.798 514.002 202.925 514.552 203.095C515.102 203.222 515.716 203.307 516.394 203.349C517.071 203.391 517.833 203.412 518.68 203.412H529.476C534.048 203.412 537.837 202.671 540.843 201.19C543.892 199.665 546.284 197.295 548.02 194.077C549.798 190.859 551.068 187.134 551.83 182.9C552.592 178.666 553.079 173.416 553.291 167.15ZM631.657 206.143C624.925 206.143 618.554 204.026 612.542 199.793C612.161 199.538 611.61 199.179 610.891 198.713C610.213 198.205 609.705 197.866 609.366 197.697C609.07 197.485 608.668 197.21 608.16 196.871C607.652 196.533 607.228 196.3 606.89 196.173C606.593 196.046 606.255 195.94 605.874 195.855C605.535 195.728 605.196 195.665 604.857 195.665C603.799 195.665 602.973 196.406 602.381 197.887C601.83 199.369 601.492 202.121 601.365 206.143H600.031L599.523 168.167H600.857C601.068 171.384 601.576 174.602 602.381 177.819C603.185 180.995 604.392 184.234 606.001 187.536C607.652 190.796 609.599 193.675 611.843 196.173C614.129 198.671 616.966 200.703 620.353 202.269C623.782 203.836 627.55 204.619 631.657 204.619C639.024 204.619 644.57 202.756 648.296 199.03C651.429 196.024 652.995 191.939 652.995 186.774C652.995 184.445 652.529 182.307 651.598 180.36C650.709 178.37 649.566 176.655 648.169 175.216C646.814 173.776 644.93 172.337 642.517 170.897C640.146 169.458 637.902 168.272 635.785 167.341C633.668 166.367 630.958 165.224 627.656 163.912C620.543 161.075 615.484 158.683 612.478 156.735C604.646 151.782 600.73 145.283 600.73 137.239C600.73 130.592 603.058 125.004 607.715 120.474C612.965 115.351 620.035 112.789 628.926 112.789C635.362 112.789 641.183 114.779 646.39 118.759C647.025 119.225 647.703 119.754 648.423 120.347C649.185 120.897 649.756 121.341 650.137 121.68C650.561 121.976 651.005 122.294 651.471 122.633C651.937 122.929 652.339 123.141 652.677 123.268C653.016 123.395 653.334 123.458 653.63 123.458C654.646 123.458 655.408 122.717 655.916 121.236C656.424 119.754 656.7 116.938 656.742 112.789H658.075L658.584 148.924H657.313C657.102 145.961 656.636 142.976 655.916 139.97C655.197 136.964 654.075 133.894 652.55 130.761C651.069 127.629 649.291 124.877 647.216 122.506C645.184 120.135 642.58 118.187 639.405 116.663C636.229 115.139 632.737 114.377 628.926 114.377C622.914 114.377 618.278 115.753 615.018 118.505C611.716 121.172 610.065 124.771 610.065 129.301C610.065 130.783 610.255 132.201 610.637 133.556C611.06 134.868 611.568 136.032 612.161 137.049C612.796 138.065 613.685 139.081 614.828 140.097C616.013 141.113 617.135 142.002 618.194 142.764C619.295 143.484 620.713 144.288 622.449 145.177C624.227 146.024 625.814 146.765 627.212 147.4C628.651 147.993 630.472 148.734 632.673 149.623C640.548 152.798 646.094 155.402 649.312 157.434C655.959 161.583 659.917 166.854 661.187 173.247C661.526 174.983 661.695 176.803 661.695 178.709C661.695 186.922 658.965 193.442 653.503 198.268C647.957 203.518 640.675 206.143 631.657 206.143ZM755.303 115.266C754.329 115.308 753.462 115.372 752.699 115.457C751.98 115.499 751.302 115.626 750.667 115.838C750.032 116.049 749.482 116.219 749.016 116.346C748.593 116.473 748.191 116.748 747.809 117.171C747.471 117.595 747.174 117.933 746.92 118.187C746.709 118.399 746.518 118.844 746.349 119.521C746.222 120.156 746.116 120.685 746.031 121.109C745.947 121.49 745.883 122.146 745.841 123.077C745.798 124.009 745.777 124.771 745.777 125.363C745.777 125.914 745.777 126.803 745.777 128.031V190.965C745.777 192.235 745.777 193.167 745.777 193.759C745.777 194.31 745.798 195.051 745.841 195.982C745.883 196.914 745.947 197.591 746.031 198.014C746.116 198.395 746.222 198.925 746.349 199.602C746.518 200.237 746.709 200.682 746.92 200.936C747.174 201.147 747.471 201.465 747.809 201.888C748.191 202.269 748.593 202.544 749.016 202.714C749.482 202.841 750.032 203.01 750.667 203.222C751.302 203.391 751.98 203.518 752.699 203.603C753.462 203.645 754.329 203.688 755.303 203.73V205H722.09V203.73C723.106 203.688 724.016 203.645 724.82 203.603C725.625 203.518 726.366 203.391 727.043 203.222C727.72 203.01 728.292 202.841 728.758 202.714C729.266 202.544 729.689 202.269 730.028 201.888C730.409 201.465 730.726 201.147 730.98 200.936C731.234 200.682 731.446 200.237 731.615 199.602C731.785 198.925 731.912 198.395 731.996 198.014C732.081 197.591 732.145 196.914 732.187 195.982C732.229 195.051 732.251 194.31 732.251 193.759C732.251 193.167 732.251 192.235 732.251 190.965V158.069H693.512V190.965C693.512 192.235 693.512 193.167 693.512 193.759C693.512 194.31 693.533 195.051 693.575 195.982C693.618 196.914 693.681 197.591 693.766 198.014C693.851 198.395 693.978 198.925 694.147 199.602C694.316 200.237 694.528 200.682 694.782 200.936C695.036 201.147 695.332 201.465 695.671 201.888C696.052 202.269 696.475 202.544 696.941 202.714C697.449 202.841 698.042 203.01 698.719 203.222C699.397 203.391 700.138 203.518 700.942 203.603C701.746 203.645 702.657 203.688 703.673 203.73V205H670.459V203.73C671.433 203.688 672.28 203.645 672.999 203.603C673.761 203.518 674.46 203.391 675.095 203.222C675.73 203.01 676.259 202.841 676.683 202.714C677.148 202.544 677.551 202.269 677.889 201.888C678.27 201.465 678.567 201.147 678.778 200.936C679.032 200.682 679.223 200.237 679.35 199.602C679.519 198.925 679.646 198.395 679.731 198.014C679.816 197.591 679.879 196.914 679.922 195.982C679.964 195.051 679.985 194.31 679.985 193.759C679.985 193.167 679.985 192.235 679.985 190.965V128.031C679.985 126.803 679.985 125.914 679.985 125.363C679.985 124.771 679.964 124.009 679.922 123.077C679.879 122.146 679.816 121.49 679.731 121.109C679.646 120.685 679.519 120.156 679.35 119.521C679.223 118.844 679.032 118.399 678.778 118.187C678.567 117.933 678.27 117.595 677.889 117.171C677.551 116.748 677.148 116.473 676.683 116.346C676.259 116.219 675.73 116.049 675.095 115.838C674.46 115.626 673.761 115.499 672.999 115.457C672.28 115.372 671.433 115.308 670.459 115.266V113.932H703.673V115.266C698.889 115.435 695.989 116.282 694.972 117.806C693.999 119.33 693.512 122.739 693.512 128.031V156.481H732.251V128.031C732.251 122.739 731.742 119.33 730.726 117.806C729.753 116.282 726.874 115.435 722.09 115.266V113.932H755.303V115.266ZM827.7 188.107C829.817 193.781 831.849 197.718 833.797 199.92C835.744 202.079 838.665 203.349 842.56 203.73V205H806.108V203.73C807.717 203.645 809.093 203.497 810.236 203.285C811.421 203.074 812.416 202.777 813.221 202.396C814.025 202.015 814.681 201.613 815.189 201.19C815.697 200.766 816.036 200.195 816.205 199.475C816.375 198.713 816.459 198.014 816.459 197.379C816.502 196.744 816.375 195.876 816.078 194.776C815.782 193.632 815.486 192.616 815.189 191.727C814.893 190.838 814.47 189.632 813.919 188.107L808.585 173.374H779.054L775.689 183.027C772.598 190.817 771.413 196.13 772.132 198.967C772.894 201.804 776.684 203.391 783.5 203.73V205H756.319V203.73C758.097 203.603 759.6 203.412 760.828 203.158C762.056 202.862 763.22 202.333 764.321 201.571C765.422 200.809 766.311 200.047 766.988 199.284C767.666 198.48 768.428 197.189 769.275 195.411C770.164 193.59 770.926 191.854 771.561 190.203C772.196 188.552 773.064 186.16 774.164 183.027L798.741 112.662H800.011L827.7 188.107ZM779.499 171.977H808.077L793.407 131.905L779.499 171.977ZM909.559 113.932L910.067 148.416H908.734C908.183 136.858 906.257 128.496 902.955 123.331C899.652 118.124 894.741 115.52 888.221 115.52H875.33C874.356 115.52 873.509 115.562 872.789 115.647C872.112 115.689 871.477 115.753 870.884 115.838C870.291 115.922 869.783 116.113 869.36 116.409C868.979 116.705 868.64 116.96 868.344 117.171C868.047 117.341 867.815 117.743 867.645 118.378C867.476 118.971 867.328 119.457 867.201 119.838C867.074 120.177 866.989 120.833 866.947 121.807C866.904 122.781 866.883 123.585 866.883 124.22C866.883 124.813 866.883 125.808 866.883 127.205V156.227H874.948C877.616 156.227 879.86 156.122 881.68 155.91C883.501 155.698 885.088 155.254 886.443 154.576C887.798 153.899 888.856 153.158 889.618 152.354C890.38 151.507 891.015 150.279 891.524 148.67C892.032 147.019 892.391 145.326 892.603 143.59C892.815 141.854 892.984 139.568 893.111 136.731H894.445V177.438H893.111C892.984 174.602 892.815 172.316 892.603 170.58C892.391 168.802 892.032 167.108 891.524 165.499C891.015 163.848 890.38 162.599 889.618 161.752C888.856 160.906 887.798 160.144 886.443 159.466C885.088 158.789 883.501 158.344 881.68 158.133C879.86 157.921 877.616 157.815 874.948 157.815H866.883V190.965C866.883 191.008 866.883 191.05 866.883 191.092C866.883 192.659 866.883 193.781 866.883 194.458C866.926 195.135 866.989 196.003 867.074 197.062C867.201 198.12 867.349 198.861 867.518 199.284C867.73 199.708 868.047 200.237 868.471 200.872C868.894 201.507 869.402 201.931 869.995 202.142C870.588 202.354 871.329 202.608 872.218 202.904C873.149 203.201 874.208 203.412 875.393 203.539C876.578 203.624 877.976 203.688 879.584 203.73V205H843.831V203.73C844.804 203.688 845.651 203.645 846.371 203.603C847.133 203.518 847.831 203.391 848.466 203.222C849.102 203.01 849.631 202.841 850.054 202.714C850.52 202.544 850.922 202.269 851.261 201.888C851.642 201.465 851.938 201.147 852.15 200.936C852.404 200.682 852.594 200.237 852.721 199.602C852.891 198.925 853.018 198.395 853.102 198.014C853.187 197.591 853.251 196.914 853.293 195.982C853.335 195.051 853.356 194.31 853.356 193.759C853.356 193.167 853.356 192.235 853.356 190.965V128.031C853.356 126.761 853.356 125.85 853.356 125.3C853.356 124.707 853.335 123.945 853.293 123.014C853.251 122.082 853.187 121.426 853.102 121.045C853.018 120.622 852.891 120.092 852.721 119.457C852.594 118.78 852.404 118.335 852.15 118.124C851.938 117.87 851.642 117.552 851.261 117.171C850.922 116.748 850.52 116.473 850.054 116.346C849.631 116.176 849.102 116.007 848.466 115.838C847.831 115.626 847.133 115.499 846.371 115.457C845.651 115.372 844.804 115.308 843.831 115.266V113.932H909.559ZM915.846 205V203.73C916.989 203.688 917.984 203.603 918.831 203.476C919.678 203.349 920.44 203.222 921.117 203.095C921.837 202.968 922.43 202.735 922.896 202.396C923.404 202.015 923.827 201.698 924.166 201.444C924.504 201.19 924.78 200.745 924.991 200.11C925.203 199.433 925.372 198.903 925.499 198.522C925.626 198.099 925.711 197.4 925.753 196.427C925.796 195.411 925.817 194.585 925.817 193.95C925.859 193.315 925.88 192.32 925.88 190.965V128.031C925.88 126.676 925.859 125.681 925.817 125.046C925.817 124.411 925.796 123.606 925.753 122.633C925.711 121.617 925.626 120.918 925.499 120.537C925.372 120.114 925.203 119.584 924.991 118.949C924.78 118.272 924.504 117.806 924.166 117.552C923.827 117.298 923.404 117.002 922.896 116.663C922.43 116.282 921.837 116.028 921.117 115.901C920.44 115.774 919.678 115.647 918.831 115.52C917.984 115.393 916.989 115.308 915.846 115.266V113.932H949.251V115.266C947.98 115.308 946.88 115.393 945.948 115.52C945.059 115.605 944.255 115.795 943.535 116.092C942.815 116.388 942.223 116.663 941.757 116.917C941.333 117.129 940.952 117.573 940.614 118.251C940.317 118.886 940.084 119.415 939.915 119.838C939.746 120.219 939.619 120.96 939.534 122.061C939.449 123.162 939.407 124.051 939.407 124.728C939.407 125.363 939.407 126.464 939.407 128.031V190.965C939.407 192.532 939.407 193.654 939.407 194.331C939.407 194.966 939.449 195.834 939.534 196.935C939.619 198.036 939.746 198.798 939.915 199.221C940.084 199.602 940.317 200.131 940.614 200.809C940.952 201.444 941.333 201.888 941.757 202.142C942.223 202.354 942.815 202.608 943.535 202.904C944.255 203.201 945.059 203.412 945.948 203.539C946.88 203.624 947.98 203.688 949.251 203.73V205H915.846Z" fill="#224A4C"/>
</svg>
