<svg width="450" height="92" viewBox="0 0 450 92" fill="none" xmlns="http://www.w3.org/2000/svg">
<path d="M211.262 55.5779C212.146 54.5559 212.495 53.3729 213.106 52.3409C214.21 50.4749 215.306 48.6009 216.305 46.6779C217.804 43.7919 219.526 41.0319 221.037 38.1579C222.531 35.3159 224.209 32.5769 225.685 29.7319C226.991 27.2129 228.432 24.7729 229.778 22.2789C231.599 18.9059 233.536 15.5959 235.338 12.2139C236.769 9.52692 238.362 6.93191 239.761 4.23191C240.133 3.51391 240.589 3.30791 241.342 3.31191C246.199 3.33491 251.056 3.32092 255.913 3.32592C257.012 3.32692 257.025 3.34092 257.026 4.44192C257.031 9.50792 257.028 14.5749 257.029 19.6409C257.029 42.5439 257.03 65.4469 257.027 88.3499C257.027 90.0719 257.234 89.8849 255.491 89.8879C251.723 89.8939 247.954 89.8919 244.186 89.8889C242.814 89.8879 242.811 89.8819 242.811 88.5059C242.81 67.6969 242.81 46.8869 242.81 26.0779C242.81 25.6369 242.81 25.1959 242.81 24.7549C241.844 26.0709 241.044 27.3969 240.329 28.7869C239.184 31.0119 237.872 33.1489 236.654 35.3369C234.587 39.0489 232.542 42.7739 230.479 46.4889C229.507 48.2389 228.461 49.9489 227.541 51.7249C225.488 55.6849 223.107 59.4619 221.096 63.4459C220.195 65.2299 219.145 66.9389 218.157 68.6789C217.831 69.2519 217.431 69.5749 216.665 69.5639C212.939 69.5109 209.212 69.5129 205.486 69.5599C204.682 69.5699 204.287 69.2479 203.934 68.5979C202.423 65.8139 200.874 63.0499 199.341 60.2769C197.386 56.7419 195.352 53.2489 193.427 49.7009C190.982 45.1959 188.467 40.7319 185.973 36.2559C183.786 32.3309 181.746 28.3209 179.279 24.4109C179.059 24.8959 179.147 25.3429 179.147 25.7629C179.141 46.5719 179.144 67.3819 179.137 88.1909C179.136 90.1579 179.42 89.8779 177.385 89.8859C173.742 89.8999 170.1 89.8899 166.457 89.8899C164.985 89.8899 165.083 89.9979 165.083 88.5549C165.084 73.9839 165.084 59.4129 165.084 44.8429C165.084 31.5279 165.083 18.2139 165.086 4.89892C165.086 3.16392 164.941 3.32692 166.617 3.32592C171.474 3.32192 176.331 3.34691 181.188 3.30291C182.021 3.29491 182.498 3.55692 182.872 4.27592C183.87 6.19592 184.91 8.09392 185.952 9.99092C186.614 11.1969 187.376 12.3529 187.976 13.5879C189.108 15.9179 190.468 18.1179 191.711 20.3849C193.673 23.9659 195.721 27.5049 197.647 31.1019C199.596 34.7419 201.749 38.2669 203.612 41.9529C204.571 43.8499 205.758 45.6319 206.723 47.5269C207.82 49.6809 209.083 51.7419 210.189 53.8899C210.47 54.4409 210.854 54.9439 211.262 55.5779Z" fill="#1D2B32"/>
<path d="M449.993 88.3791C449.997 77.4101 449.994 66.4421 449.994 55.4721C449.994 45.8851 449.995 36.2971 449.994 26.7101C449.994 25.3441 450.112 25.4351 448.7 25.4351C445.099 25.4341 441.499 25.4321 437.898 25.4351C436.653 25.4351 436.674 25.2791 436.679 26.6551C436.68 26.9061 436.679 27.1581 436.679 27.4091V33.1211C436.541 33.1391 436.484 33.1611 436.468 33.1451C436.352 33.0291 436.243 32.9081 436.135 32.7841C433.293 29.5191 430.011 26.9071 425.837 25.4871C423.166 24.5771 420.454 23.9981 417.646 23.8801C413.3 23.6981 409.131 24.4211 405.034 25.9781C401.868 27.1801 399.195 29.0801 396.742 31.2471C394.571 33.1671 392.772 35.4811 391.285 38.0441C388.992 41.9941 387.385 46.1661 386.823 50.6791C386.436 53.7721 386.099 56.8791 386.392 60.0321C386.722 63.6071 387.07 67.1611 388.219 70.5901C389.178 73.4511 390.524 76.1231 392.142 78.6591C393.335 80.5271 394.764 82.1931 396.371 83.7361C398.345 85.6291 400.47 87.2591 402.92 88.4841C406.911 90.4781 411.134 91.4301 415.585 91.4881C416.721 91.5031 417.826 91.3281 418.944 91.2351C422.675 90.9281 426.135 89.6781 429.345 87.8641C431.967 86.3821 434.168 84.3051 436.04 81.9141C436.187 81.7261 436.23 81.3051 436.679 81.4641C436.679 83.7231 436.673 85.9831 436.682 88.2431C436.688 90.0551 436.468 89.8811 438.257 89.8841C441.648 89.8891 445.038 89.8921 448.43 89.8831C450.198 89.8791 449.992 90.0971 449.993 88.3791ZM435.753 68.7001C434.397 71.2891 432.611 73.4511 430.206 75.1871C428.03 76.7591 425.703 77.9681 423.122 78.4601C420.721 78.9161 418.246 79.0811 415.774 78.7201C414.496 78.5331 413.216 78.4301 411.99 77.9731C407.932 76.4591 404.982 73.6991 402.903 69.9531C401.378 67.2041 400.87 64.1771 400.48 61.1101C400.263 59.4001 400.26 57.6851 400.342 55.9811C400.504 52.6351 401.035 49.3481 402.492 46.2871C403.449 44.2741 404.698 42.3821 406.343 40.9331C408.866 38.7091 411.793 37.1601 415.214 36.5941C417.975 36.1371 420.708 36.1821 423.401 36.7591C425.645 37.2391 427.785 38.1051 429.656 39.5151C431.022 40.5451 432.425 41.5241 433.468 42.9181C434.497 44.2911 435.362 45.7581 436.095 47.3091C436.3 47.7411 436.28 48.2021 436.28 48.6621V57.7001H436.315C436.315 60.5741 436.294 63.4491 436.328 66.3231C436.336 67.1811 436.149 67.9431 435.753 68.7001Z" fill="#1D2B32"/>
<path d="M330.39 61.9615C330.341 58.6265 330.487 55.2945 330.016 51.9605C329.517 48.4305 328.707 45.0055 327.349 41.7225C325.561 37.4005 323.128 33.5005 319.491 30.4665C317.25 28.5975 314.898 26.9375 312.095 25.9065C309.047 24.7845 305.944 24.1065 302.724 23.8905C300.381 23.7325 298.047 23.8795 295.72 24.1795C292.975 24.5335 290.3 25.2825 287.795 26.3755C283.902 28.0725 280.485 30.5305 277.648 33.7575C275.624 36.0605 273.922 38.5475 272.634 41.3355C270.618 45.6985 269.417 50.2715 269.202 55.0645C268.975 60.1275 269.321 65.1375 271.042 69.9805C271.953 72.5475 273.051 75.0275 274.524 77.3025C276.181 79.8595 278.155 82.1685 280.537 84.1165C283.075 86.1935 285.805 87.9265 288.875 89.1015C293.089 90.7145 297.456 91.4875 301.964 91.4745C303.088 91.4705 304.201 91.3655 305.321 91.2745C307.659 91.0875 309.959 90.7565 312.231 90.1905C315.076 89.4805 317.852 88.5445 320.448 87.2005C323.265 85.7415 325.86 83.9155 328.265 81.8335C328.995 81.2015 329.024 81.1555 328.401 80.4605C326.728 78.5975 325.258 76.5695 323.661 74.6435C322.924 73.7555 322.131 72.9125 321.347 72.0305C321.035 72.3585 320.831 72.6275 320.577 72.8355C318.798 74.2945 316.92 75.6195 314.909 76.7235C313.449 77.5255 311.899 78.2285 310.259 78.5415C307.187 79.1245 304.086 79.5475 300.941 79.3595C298.901 79.2375 296.873 78.9295 294.959 78.2265C291.882 77.0975 289.345 75.2005 287.335 72.5755C285.133 69.7015 283.783 66.4955 283.227 62.9305C283.716 62.7775 284.179 62.8465 284.634 62.8465C295.853 62.8415 307.071 62.8425 318.289 62.8425C322.015 62.8425 325.74 62.8465 329.466 62.8385C330.371 62.8355 330.403 62.8165 330.39 61.9615ZM283.224 52.2565C283.583 49.7965 284.288 47.4855 285.425 45.3075C286.142 43.9345 287.015 42.6525 287.95 41.4255C288.816 40.2885 289.989 39.4635 291.141 38.6395C293.615 36.8715 296.376 36.0135 299.422 35.8465C303.303 35.6345 306.883 36.3875 310.046 38.7025C312.133 40.2275 313.684 42.2075 314.874 44.5115C315.927 46.5525 316.25 48.7565 316.586 50.9705C316.646 51.3755 316.67 51.7845 316.717 52.2565H283.224Z" fill="#1D2B32"/>
<path d="M96.5736 60.5525C96.5706 60.5575 96.5686 60.5625 96.5656 60.5675C96.5616 60.5675 96.5566 60.5685 96.5526 60.5705C95.4806 60.7065 94.9976 61.6045 94.3606 62.2915C94.0286 62.6485 94.1366 63.0985 94.3646 63.4645C94.8646 64.2745 94.7136 64.9545 94.0756 65.6105C93.2736 66.4335 92.7376 67.3305 92.7286 68.5845C92.7206 69.6055 91.7936 70.2955 91.0506 70.8205C89.8936 71.6385 89.7696 73.1635 88.6286 73.9485C88.3886 74.1135 88.5696 74.4965 88.6076 74.7855C88.6506 75.1275 88.8486 75.5645 88.2396 75.6305L88.2386 75.6295C86.7536 73.7895 85.4606 71.8245 84.2536 69.7925C83.2736 68.1445 82.2426 66.5225 81.1516 64.9445C80.2206 63.6005 79.5576 62.1115 78.7086 60.7235C76.1416 56.5295 73.6116 52.3125 71.0896 48.0915C70.2176 46.6325 69.4836 45.0915 68.3836 43.7775C67.3066 42.2495 66.2866 40.6845 65.3336 39.0765C64.0826 36.9675 62.6776 34.9645 61.1466 33.0505L61.1276 33.0275C61.0996 32.9895 61.0726 32.9525 61.0456 32.9145C61.1096 32.8955 61.1786 32.8865 61.2546 32.8865C60.9506 32.3435 60.7196 31.7415 60.3316 31.2685C58.7746 29.3705 57.3206 27.3925 55.7716 25.4855C53.8396 23.1065 51.6626 21.0015 49.2466 19.1465C47.9616 18.1575 46.5916 17.2525 45.0406 16.7155C42.6866 15.9025 40.2466 15.5455 37.7726 15.8135C36.0376 16.0015 34.3356 16.4595 32.8136 17.3805C28.6686 19.8905 25.6796 23.5265 23.3096 27.6385C21.2946 31.1335 19.5776 34.8065 18.4216 38.6965C17.9086 40.4205 17.2336 42.1085 17.0816 43.9265C17.0636 44.1455 16.9626 44.3225 16.8256 44.4845C16.8586 44.5485 16.8876 44.6115 16.9106 44.6745C16.8866 44.6925 16.8616 44.7085 16.8376 44.7235C15.1876 45.8075 13.4216 45.7265 11.5776 45.2345C10.4986 44.9465 9.36563 44.8725 8.34263 44.3575C8.11563 44.2435 7.85763 44.3965 7.62263 44.4885C6.59163 44.8905 5.50663 44.9945 4.43063 44.8385C3.42263 44.6925 2.46063 45.0035 1.47363 44.9825C1.63063 43.2355 2.12163 41.5555 2.55663 39.8685C3.72263 35.3495 5.09263 30.8995 7.13663 26.6825C8.73863 23.3775 10.3636 20.0895 12.5546 17.1175C13.6416 15.6425 14.6426 14.1075 15.8516 12.7195C19.3716 8.67651 23.4156 5.2825 28.2726 2.9835C30.6836 1.8425 33.2816 1.1545 35.9426 0.783503C37.0946 0.622503 38.2316 0.426514 39.4096 0.444514C42.1366 0.485514 44.7816 0.963503 47.4096 1.6585C50.8946 2.5795 53.9726 4.25651 56.9126 6.30851C58.9456 7.72951 60.7426 9.3825 62.5556 11.0525C65.3596 13.6345 67.7116 16.6145 70.2076 19.4685C72.0356 21.4695 73.5536 23.7075 75.1156 25.9085C75.7756 26.8385 76.3356 27.8435 77.2366 28.5785C77.2566 28.5965 77.2776 28.6125 77.2986 28.6285C77.3036 28.6385 77.3076 28.6475 77.3126 28.6575C77.2746 28.6565 77.2346 28.6495 77.1916 28.6415C77.0186 29.2085 77.3676 29.6285 77.6606 30.0075C78.6566 31.2955 79.4466 32.7125 80.3136 34.0825C81.8706 36.5445 83.4686 38.9785 84.9196 41.5085C86.6776 44.5725 88.5466 47.5725 90.3836 50.5905C92.0496 53.3265 93.7456 56.0455 95.4046 58.7855C95.7686 59.3865 96.3406 59.8525 96.5416 60.5545C96.5506 60.5505 96.5626 60.5515 96.5736 60.5525Z" fill="#0366E1"/>
<path d="M347.065 53.8977C347.065 48.7907 347.065 43.6837 347.065 38.5767C347.065 38.3257 347.042 38.0717 347.068 37.8237C347.134 37.1917 346.92 36.9257 346.233 36.9587C345.105 37.0137 343.973 36.9737 342.843 36.9737C340.29 36.9737 337.736 36.9797 335.183 36.9707C334.276 36.9677 334.257 36.9507 334.255 36.0947C334.247 32.8717 334.247 29.6487 334.255 26.4247C334.257 25.4487 334.273 25.4387 335.337 25.4367C338.686 25.4317 342.035 25.4347 345.383 25.4347C345.634 25.4347 345.885 25.4387 346.136 25.4337C347.049 25.4157 347.062 25.4147 347.063 24.4477C347.068 19.1737 347.066 13.8987 347.065 8.62472C347.065 6.59172 347.065 6.59171 349.108 6.59171C352.582 6.59171 356.057 6.58871 359.531 6.59371C360.618 6.59471 360.628 6.60372 360.629 7.68072C360.633 13.0807 360.631 18.4807 360.631 23.8807C360.631 24.1737 360.65 24.4677 360.629 24.7597C360.595 25.2297 360.769 25.4697 361.266 25.4387C361.558 25.4207 361.852 25.4367 362.145 25.4367C367.587 25.4367 373.028 25.4367 378.47 25.4367C378.721 25.4367 378.973 25.4287 379.223 25.4377C380.097 25.4697 380.118 25.4717 380.122 26.3857C380.133 28.9807 380.126 31.5757 380.126 34.1717C380.126 34.8837 380.112 35.5957 380.129 36.3067C380.14 36.7817 379.949 37.0067 379.462 36.9777C379.17 36.9607 378.876 36.9757 378.583 36.9757C373.225 36.9757 367.867 36.9757 362.509 36.9757C362.3 36.9757 362.09 36.9727 361.881 36.9767C360.64 36.9947 360.632 36.9957 360.632 38.2367C360.63 47.2787 360.592 56.3207 360.658 65.3617C360.674 67.5997 360.713 69.8667 361.318 72.0627C362.16 75.1197 363.654 77.6327 366.97 78.4557C368.875 78.9287 370.842 79.0327 372.808 78.9317C375.056 78.8167 377.308 78.7117 379.528 78.3097C380.152 78.1967 380.128 78.5397 380.128 78.9357C380.128 80.2757 380.127 81.6147 380.127 82.9537C380.127 84.8797 380.097 86.8057 380.144 88.7297C380.162 89.4377 379.953 89.7717 379.247 89.9587C375.55 90.9387 371.799 91.3347 367.976 91.2627C365.537 91.2167 363.15 90.9257 360.816 90.2447C357.213 89.1947 354.138 87.3667 351.738 84.3817C349.737 81.8927 348.719 79.0357 347.978 76.0147C347.258 73.0787 347.041 70.0987 347.059 67.0847C347.085 62.6887 347.065 58.2937 347.065 53.8977Z" fill="#1D2B32"/>
<path d="M136.662 61.3391C136.613 63.1731 136.616 65.0362 136.372 66.8332C135.759 71.3392 134.586 75.6911 132.471 79.7951C130.84 82.9621 128.629 85.5681 125.834 87.6471C123.687 89.2441 121.222 90.3301 118.578 90.9121C118.297 90.9741 117.998 90.9562 117.707 90.9752H117.706C116.883 91.1142 116.051 91.0271 115.234 90.9891C113.92 90.9271 113.48 90.2401 113.821 88.9761C114.048 88.1281 114.207 87.2662 114.378 86.4062C114.467 85.9502 114.61 85.4141 114.369 85.0521C112.846 82.7621 114.228 80.4741 114.296 78.1881C114.329 77.0501 115.304 76.7231 115.958 76.1211C116.092 76.1071 116.228 76.1021 116.366 76.1031C119.833 74.6421 121.837 71.9971 122.596 68.3641C122.988 66.4871 123.337 64.6061 123.413 62.6791C123.512 60.1251 123.452 57.5722 123.328 55.0272C123.219 52.7882 122.877 50.5581 122.592 48.3311C122.376 46.6401 122.17 44.9471 121.804 43.2771C120.769 38.5431 119.216 33.9741 117.318 29.5261C116.101 26.6741 114.436 24.0491 112.602 21.5721C110.116 18.2161 107.053 15.4561 103.17 13.7421C100.625 12.6181 97.953 12.2501 95.206 12.6241C91.658 13.1081 88.845 15.0991 86.286 17.3901C84.05 19.3931 82.136 21.7321 80.388 24.1881C79.343 25.6541 78.287 27.1141 77.236 28.5751C77.256 28.5931 77.277 28.6091 77.298 28.6251C77.303 28.6351 77.307 28.6441 77.312 28.6541C77.274 28.6531 77.234 28.6461 77.191 28.6381C76.562 28.6101 76.25 28.1431 75.955 27.6961C74.307 25.2041 72.598 22.7551 70.65 20.4851C70.39 20.1811 70.403 19.7841 70.208 19.4661C71.816 17.4951 73.424 15.5231 75.031 13.5511C76.142 12.1891 77.483 11.0471 78.658 9.74813C80.409 7.81013 82.575 6.37014 84.653 4.84214C87.064 3.07114 89.819 1.96014 92.718 1.23014C94.21 0.854144 95.719 0.533144 97.261 0.465144C100.346 0.329144 103.3 1.03215 106.228 1.91615C108.898 2.72315 111.259 4.08413 113.567 5.62113C116.694 7.70313 119.331 10.3071 121.734 13.1371C123.458 15.1671 125.085 17.3101 126.397 19.6431C128.936 24.1531 131.206 28.7831 132.731 33.7591C133.634 36.7081 134.47 39.6721 135.109 42.6821C135.584 44.9161 135.766 47.2111 136.196 49.4571C136.538 51.2451 136.302 53.0441 136.503 54.8261C136.746 56.9931 136.721 59.1681 136.662 61.3391Z" fill="#017EFA"/>
<path d="M68.3829 43.7777C65.9699 47.6707 63.8339 51.7247 61.5729 55.7047C59.6559 59.0777 57.7019 62.4317 55.8029 65.8167C54.7229 67.7397 53.4219 69.5387 52.2559 71.4177C50.8899 73.6187 49.3479 75.6917 47.7969 77.7637C45.2099 81.2187 42.3559 84.4287 38.8999 87.0317C35.9229 89.2737 32.5729 90.6867 28.8559 91.2707C26.6859 91.6127 24.5079 91.6227 22.3679 91.4427C19.1969 91.1777 16.1819 90.1967 13.3349 88.6927C9.39294 86.6097 6.55494 83.4507 4.41994 79.6437C2.76394 76.6897 1.70494 73.4867 0.989936 70.1667C0.059936 65.8517 -0.094064 61.4967 0.0419361 57.1027C0.113936 54.7627 0.364937 52.4427 0.605937 50.1237C0.783937 48.4017 1.04094 46.6727 1.46994 44.9837C2.33194 44.2667 3.36194 44.4557 4.34394 44.4927C5.53494 44.5367 6.72994 44.7027 7.80494 43.9867C8.19094 43.7287 8.52694 43.9077 8.83894 44.1337C9.43794 44.5667 10.1079 44.7527 10.8359 44.7187C11.3589 44.6947 11.8269 44.7667 12.1999 45.1877C12.2989 45.2997 12.5559 45.4337 12.6209 45.3887C13.3299 44.8887 13.9869 45.1357 14.7599 45.2677C15.3839 45.3747 16.1289 44.7727 16.8199 44.4847C16.8529 44.5487 16.8819 44.6117 16.9049 44.6747C16.8809 44.6927 16.8559 44.7087 16.8319 44.7237C16.8319 44.7697 16.8279 44.8157 16.8169 44.8597C15.9169 48.1687 15.4789 51.5697 15.2139 54.9587C14.9439 58.4027 14.8219 61.8807 15.3799 65.3407C15.7849 67.8447 16.4789 70.2167 17.8749 72.3537C18.1479 72.7707 18.3049 73.2547 18.6849 73.6137C22.2249 76.9487 26.7419 77.2417 30.7189 75.1317C33.0049 73.9197 34.7549 72.0687 36.4009 70.1077C39.3829 66.5547 41.9529 62.7047 44.4879 58.8337C47.0239 54.9607 49.4449 51.0117 51.9429 47.1137C53.9239 44.0217 55.9389 40.9517 57.9469 37.8777C59.0039 36.2647 60.0749 34.6607 61.1419 33.0527L61.1229 33.0297C61.0949 32.9917 61.0679 32.9547 61.0409 32.9167C61.1049 32.8977 61.1739 32.8887 61.2499 32.8887C61.6269 33.0197 61.8479 33.3137 62.0739 33.6227C64.1459 36.4477 65.8769 39.4947 67.8239 42.4007C68.0989 42.8047 68.3679 43.2507 68.3829 43.7777Z" fill="#017EFA"/>
<path d="M117.706 90.9752C116.986 91.3072 116.198 91.4802 115.437 91.4712C113.276 91.4462 111.108 91.6932 108.953 91.2552C107.565 90.9722 106.179 90.7102 104.836 90.2402C101.188 88.9652 98.0661 86.8622 95.3321 84.1682C92.6851 81.5592 90.2931 78.7352 88.2391 75.6302L88.2381 75.6292C88.5871 75.3482 88.4651 75.0252 88.2731 74.7412C87.9201 74.2162 88.0191 73.7522 88.5241 73.4682C89.2441 73.0622 89.5811 72.4492 89.7441 71.6902C89.7991 71.4312 89.9391 71.1912 90.1571 71.0872C90.8571 70.7552 91.2401 70.0902 91.7951 69.6252C92.4011 69.1202 92.5441 68.5762 92.4971 67.8792C92.4541 67.2402 92.4771 66.6502 93.1491 66.2612C93.4101 66.1092 93.5031 65.6872 93.7501 65.4822C94.4771 64.8762 94.6241 64.3192 94.0041 63.4822C93.4951 62.7962 93.6411 62.4692 94.2771 61.8872C94.5861 61.6042 94.8701 61.3102 95.0801 60.9392C95.4231 60.3302 95.9121 60.1502 96.5391 60.5512C96.5521 60.5512 96.5631 60.5522 96.5741 60.5542C96.5711 60.5592 96.5691 60.5642 96.5661 60.5692C96.5621 60.5692 96.5571 60.5702 96.5531 60.5722C97.4371 61.7182 98.0981 63.0122 98.9161 64.1952C100.215 66.0732 101.538 67.9372 102.931 69.7542C104.358 71.6172 105.817 73.3762 107.787 74.7042C108.842 75.4152 109.925 75.8992 111.16 76.2052C112.157 76.4512 113.149 76.3162 114.131 76.4752C114.365 76.4612 114.6 76.4472 114.835 76.4352C115.194 76.2602 115.569 76.1602 115.957 76.1222C116.091 76.1082 116.227 76.1032 116.365 76.1042C116.233 76.4272 116.02 76.7182 115.694 76.8062C114.774 77.0522 114.588 77.7312 114.614 78.5332C114.63 79.0902 114.546 79.6072 114.267 80.0932C114.111 80.3632 114.067 80.6382 114.339 80.8842C114.795 81.2972 114.485 81.6042 114.205 81.9382C113.537 82.7312 113.582 82.7072 114.184 83.5062C114.752 84.2612 115.013 85.1912 114.802 86.0962C114.541 87.2202 114.526 88.4082 113.983 89.4652C113.738 89.9422 113.969 90.2682 114.41 90.4622C114.635 90.5622 114.884 90.6922 115.115 90.6812C115.997 90.6382 116.848 90.8272 117.706 90.9752Z" fill="#0374EE"/>
<path d="M77.3095 28.6542C77.2715 28.6532 77.2315 28.6462 77.1885 28.6382C77.2035 28.6172 77.2185 28.5972 77.2335 28.5752C77.2535 28.5932 77.2745 28.6092 77.2955 28.6252C77.3005 28.6352 77.3045 28.6442 77.3095 28.6542Z" fill="white"/>
<path d="M96.5741 60.5528C96.5711 60.5578 96.5691 60.5628 96.5661 60.5678C96.5621 60.5678 96.5571 60.5688 96.5531 60.5708C96.5481 60.5648 96.5431 60.5568 96.5381 60.5508C96.5511 60.5508 96.5631 60.5518 96.5741 60.5528Z" fill="white"/>
<path d="M114.835 76.4336C114.605 76.5316 114.368 76.5016 114.131 76.4736C114.365 76.4606 114.6 76.4466 114.835 76.4336Z" fill="white"/>
<path d="M16.8232 44.4834C16.8562 44.5474 16.8852 44.6104 16.9082 44.6734C16.8842 44.6914 16.8592 44.7074 16.8352 44.7224C16.8342 44.6444 16.8232 44.5624 16.8232 44.4834Z" fill="white"/>
<path d="M61.2529 32.8867C61.2169 32.9407 61.1809 32.9957 61.1449 33.0497L61.1259 33.0267C61.0979 32.9887 61.0709 32.9517 61.0439 32.9137C61.1089 32.8957 61.1779 32.8867 61.2529 32.8867Z" fill="white"/>
<path d="M12.8677 42.2542C12.9017 42.3892 12.9447 42.5882 13.0017 42.7822C13.0757 43.0332 13.1317 43.2972 12.8117 43.3932C12.4697 43.4952 12.2227 43.2822 12.1617 42.9812C12.0887 42.6232 12.0997 42.2422 12.1137 41.8732C12.1237 41.6232 12.2107 41.3472 12.5327 41.3772C12.8417 41.4062 13.0977 41.5492 12.9707 41.9482C12.9457 42.0272 12.9177 42.1052 12.8677 42.2542Z" fill="#017EFA"/>
<path d="M9.99317 42.4845C9.49217 42.1245 9.17917 41.6725 9.43717 41.4655C9.82917 41.1515 10.1002 40.6225 10.6632 40.5495C10.7482 40.5385 10.8782 40.6685 10.9432 40.7635C11.0862 40.9715 10.9712 41.1515 10.8342 41.3165C10.5282 41.6835 9.97417 41.8055 9.99317 42.4845Z" fill="#017EFA"/>
<path d="M6.19775 41.4463C5.76475 41.5013 5.46775 41.2403 5.42775 40.8433C5.37075 40.2803 5.94975 40.3733 6.24275 40.3083C6.64275 40.2203 6.79275 40.5803 6.79475 40.9533C6.79775 41.3323 6.55775 41.4463 6.19775 41.4463Z" fill="#017EFA"/>
<path d="M16.6 40.2227C17.008 40.2697 17.092 40.4456 16.965 40.6656C16.817 40.9216 16.616 41.1447 16.254 41.0237C15.868 40.8947 15.518 40.9527 15.2 41.2247C15.056 41.3487 14.871 41.3416 14.781 41.1646C14.692 40.9886 14.841 40.8596 14.956 40.7386C15.448 40.2216 16.208 40.6577 16.6 40.2227Z" fill="#017EFA"/>
<path d="M16.1462 43.1479C15.7102 43.0039 15.4472 42.7679 15.4092 42.3599C15.3862 42.1149 15.5672 41.9929 15.7952 41.9809C16.1472 41.9629 16.4822 42.0399 16.5262 42.4559C16.5582 42.7549 16.3602 42.9739 16.1462 43.1479Z" fill="#017EFA"/>
<path d="M7.84537 41.5319C7.67637 41.5319 7.62737 41.4319 7.67837 41.3099C7.74137 41.1579 7.86637 41.0469 8.04237 41.0509C8.10337 41.0519 8.21037 41.1189 8.21637 41.1659C8.25037 41.4439 8.00437 41.4529 7.84537 41.5319Z" fill="#017EFA"/>
<path d="M4.94207 39.6357C4.97407 39.6997 5.03207 39.7647 5.02907 39.8277C5.02607 39.8887 4.96007 39.9467 4.92207 40.0057C4.89007 39.9417 4.83207 39.8757 4.83507 39.8137C4.83807 39.7527 4.90407 39.6947 4.94207 39.6357Z" fill="#017EFA"/>
<path d="M114.835 76.4336C114.615 76.6946 114.379 76.6796 114.131 76.4736C114.365 76.4606 114.6 76.4466 114.835 76.4336Z" fill="#017EFA"/>
</svg>
