<svg width="41" height="41" viewBox="0 0 41 41" fill="none" xmlns="http://www.w3.org/2000/svg">
<g clip-path="url(#clip0_35_53)">
<path d="M20.5 41C31.8218 41 41 31.8218 41 20.5C41 9.17816 31.8218 0 20.5 0C9.17816 0 0 9.17816 0 20.5C0 31.8218 9.17816 41 20.5 41Z" fill="#191A23"/>
<path d="M11.25 24.7008C10.5326 25.115 10.2867 26.0324 10.701 26.7498C11.1152 27.4672 12.0326 27.7131 12.75 27.2988L11.25 24.7008ZM30.7694 16.388C30.9838 15.5878 30.5089 14.7653 29.7087 14.5509L16.6687 11.0569C15.8685 10.8424 15.046 11.3173 14.8316 12.1175C14.6172 12.9177 15.0921 13.7402 15.8923 13.9546L27.4834 17.0605L24.3776 28.6516C24.1631 29.4518 24.638 30.2743 25.4382 30.4887C26.2384 30.7031 27.0609 30.2282 27.2753 29.428L30.7694 16.388ZM12.75 27.2988L30.0705 17.2988L28.5705 14.7008L11.25 24.7008L12.75 27.2988Z" fill="#63ADF2"/>
</g>
<defs>
<clipPath id="clip0_35_53">
<rect width="41" height="41" fill="white"/>
</clipPath>
</defs>
</svg>
